<?xml version="1.0" encoding="utf-8"?>
<!-- Generator: Adobe Illustrator 25.4.1, SVG Export Plug-In . SVG Version: 6.00 Build 0)  -->
<svg version="1.1" id="Layer_1" xmlns="http://www.w3.org/2000/svg" xmlns:xlink="http://www.w3.org/1999/xlink" x="0px" y="0px"
	 viewBox="0 0 497.3 593.9" style="enable-background:new 0 0 497.3 593.9;" xml:space="preserve">
<style type="text/css">
	.st0{fill:#FFFFFF;stroke:#000000;stroke-miterlimit:10;}
	.st1{fill:none;}
	.st2{font-family:'MyriadPro-Regular';}
	.st3{font-size:12px;}
	.st4{fill:none;stroke:#000000;stroke-miterlimit:10;}
	.st5{fill:none;stroke:#000000;stroke-width:1.0006;stroke-miterlimit:10;}
	.st6{fill:none;stroke:#000000;stroke-width:0.8504;stroke-miterlimit:10;}
	.st7{font-family:'SupremeLL-Regular';}
	.st8{font-size:11.3386px;}
	.st9{font-size:17.0079px;}
</style>
<rect x="128.5" y="149" class="st0" width="112" height="152"/>
<rect x="170" y="219.5" class="st1" width="53" height="40"/>
<text transform="matrix(1 0 0 1 170.0047 228.0364)" class="st2 st3">ESP32</text>
<rect x="133" y="154.5" class="st1" width="28" height="12"/>
<text transform="matrix(1 0 0 1 133.0047 163.0364)" class="st2 st3">Gnd</text>
<rect x="226" y="152.5" class="st1" width="31" height="11"/>
<text transform="matrix(1 0 0 1 226.0047 161.0364)" class="st2 st3">P1</text>
<rect x="133" y="287.5" class="st1" width="17" height="12"/>
<text transform="matrix(1 0 0 1 133.0047 296.0364)" class="st2 st3">Vin</text>
<rect x="225.7" y="290.2" class="st1" width="31" height="11"/>
<text transform="matrix(1 0 0 1 225.7099 298.7542)" class="st2 st3">P2</text>
<polyline class="st4" points="240.5,154.9 284.9,154.5 284.9,120.2 "/>
<polyline class="st4" points="292.5,122 316.7,122 316.7,98.6 379.5,99 "/>
<circle class="st4" cx="390.5" cy="99" r="11"/>
<rect x="387.2" y="95.6" class="st1" width="36.4" height="22"/>
<text transform="matrix(1 0 0 1 387.2049 104.1419)" class="st2 st3">V</text>
<line class="st4" x1="401.5" y1="99" x2="417.9" y2="98.6"/>
<line class="st4" x1="417.9" y1="89.5" x2="417.9" y2="106.6"/>
<line class="st4" x1="421.5" y1="92" x2="421.5" y2="104.1"/>
<line class="st4" x1="424.5" y1="94.6" x2="424.5" y2="100.5"/>
<g>
	<g>
		<polyline class="st5" points="296.8,135.1 316.3,135.1 316.3,163.2 366.9,163 		"/>
		<g>
			<polygon points="297.7,138.1 292.5,135.1 297.7,132.1 			"/>
		</g>
	</g>
</g>
<line class="st4" x1="366.9" y1="155.7" x2="366.9" y2="169.5"/>
<rect x="369.4" y="157.2" class="st1" width="22.5" height="10.8"/>
<text transform="matrix(1 0 0 1 369.3943 165.6995)" class="st2 st3">Vin</text>
<polyline class="st4" points="388.7,162.9 441,162.6 441.5,346.5 89.7,346.5 "/>
<polyline class="st4" points="128.5,293.5 90.9,293.5 88.5,405.5 128.5,405.5 "/>
<rect x="128.5" y="392" class="st4" width="102" height="102"/>
<rect x="132.9" y="399.5" class="st1" width="39" height="16.7"/>
<text transform="matrix(1 0 0 1 132.9309 408.0047)" class="st2 st3">Vout</text>
<rect x="206.4" y="399.7" class="st1" width="39" height="16.7"/>
<text transform="matrix(1 0 0 1 206.3678 408.2036)" class="st2 st3">Gnd</text>
<line class="st4" x1="230.5" y1="405.5" x2="248.1" y2="405.5"/>
<line class="st4" x1="248.1" y1="396.9" x2="248.1" y2="414.7"/>
<line class="st4" x1="251.9" y1="399.5" x2="251.9" y2="410.5"/>
<line class="st4" x1="256" y1="402.2" x2="256" y2="405.8"/>
<rect x="161.2" y="431.1" class="st1" width="66.7" height="45.5"/>
<text transform="matrix(1 0 0 1 161.1941 439.6678)"><tspan x="0" y="0" class="st2 st3">Battery </tspan><tspan x="0" y="14.4" class="st2 st3">Control</tspan></text>
<rect x="131.8" y="481.7" class="st1" width="15.2" height="9.5"/>
<text transform="matrix(1 0 0 1 131.7942 490.2674)" class="st2 st3">B+</text>
<rect x="218.2" y="483.3" class="st1" width="15.2" height="9.5"/>
<text transform="matrix(1 0 0 1 218.1673 491.8489)" class="st2 st3">B-</text>
<line class="st4" x1="128.5" y1="157.2" x2="101.1" y2="157.6"/>
<line class="st4" x1="101.1" y1="143.7" x2="101.1" y2="169.5"/>
<line class="st4" x1="97.1" y1="149.2" x2="97.1" y2="165.7"/>
<line class="st4" x1="93.5" y1="152" x2="93.5" y2="160.5"/>
<polyline class="st4" points="132.9,494 131.8,535.3 161.6,535.3 "/>
<line class="st4" x1="161.6" y1="518.1" x2="161" y2="551.5"/>
<line class="st4" x1="170" y1="529.2" x2="170" y2="538.8"/>
<line class="st4" x1="179.5" y1="522.7" x2="179.5" y2="544.9"/>
<line class="st4" x1="191.5" y1="529" x2="191.5" y2="538.8"/>
<line class="st4" x1="199.9" y1="518.1" x2="199.9" y2="551.5"/>
<polyline class="st4" points="199.9,533.8 227.9,533.8 227.9,494 "/>
<line class="st4" x1="241.2" y1="295.7" x2="292.5" y2="295.7"/>
<line class="st4" x1="292.5" y1="117.6" x2="292.5" y2="124.4"/>
<line class="st4" x1="292.5" y1="130.8" x2="292.5" y2="137.6"/>
<line class="st4" x1="316.3" y1="146" x2="292.5" y2="146"/>
<line class="st4" x1="292.5" y1="143.7" x2="292.5" y2="149.2"/>
<rect x="292.5" y="290.6" class="st6" width="31.2" height="8.9"/>
<polygon class="st6" points="340.4,299.9 332,304.7 323.6,299.9 323.6,290.1 332,285.3 340.4,290.1 "/>
<line class="st6" x1="323.7" y1="295.1" x2="335.5" y2="295.1"/>
<circle class="st6" cx="337" cy="295" r="1.5"/>
<rect x="346.2" y="285.8" class="st1" width="75.8" height="26.5"/>
<text transform="matrix(1 0 0 1 346.1895 294.6006)"><tspan x="0" y="0" class="st7 st8">Temperature </tspan><tspan x="0" y="14.4" class="st7 st8">Sensor</tspan><tspan x="34" y="14.4" class="st7 st3"> </tspan></text>
<rect x="28.8" y="36.1" class="st1" width="468.4" height="44.7"/>
<text transform="matrix(1 0 0 1 28.8368 49.3004)" class="st7 st9">Open Circuit Board Design, Temperature Sensor Model </text>
<rect x="274.8" y="103.3" class="st1" width="48.5" height="14"/>
<text transform="matrix(1 0 0 1 274.8105 111.7939)"><tspan x="0" y="0" class="st2 st8">Mosfet</tspan><tspan x="32.6" y="0" class="st2 st3"> </tspan></text>
</svg>
