<?xml version="1.0" encoding="utf-8"?>
<!-- Generator: Adobe Illustrator 25.4.1, SVG Export Plug-In . SVG Version: 6.00 Build 0)  -->
<svg version="1.1" id="Layer_1" xmlns="http://www.w3.org/2000/svg" xmlns:xlink="http://www.w3.org/1999/xlink" x="0px" y="0px"
	 viewBox="0 0 488.3 602.9" style="enable-background:new 0 0 488.3 602.9;" xml:space="preserve">
<style type="text/css">
	.st0{fill:#FFFFFF;stroke:#000000;stroke-miterlimit:10;}
	.st1{fill:none;}
	.st2{font-family:'MyriadPro-Regular';}
	.st3{font-size:12px;}
	.st4{fill:none;stroke:#000000;stroke-miterlimit:10;}
	.st5{fill:none;stroke:#000000;stroke-width:1.0006;stroke-miterlimit:10;}
	.st6{fill:none;stroke:#000000;stroke-width:2.8346;stroke-miterlimit:10;}
	.st7{font-family:'SupremeLL-Regular';}
	.st8{font-size:17.0079px;}
	.st9{font-size:11.3386px;}
</style>
<rect x="128.5" y="161.5" class="st0" width="112" height="152"/>
<rect x="170" y="232" class="st1" width="53" height="40"/>
<text transform="matrix(1 0 0 1 170 240.52)" class="st2 st3">ESP32</text>
<rect x="133" y="167" class="st1" width="28" height="12"/>
<text transform="matrix(1 0 0 1 133 175.52)" class="st2 st3">Gnd</text>
<rect x="226" y="165" class="st1" width="31" height="11"/>
<text transform="matrix(1 0 0 1 226 173.52)" class="st2 st3">P1</text>
<rect x="133" y="300" class="st1" width="17" height="12"/>
<text transform="matrix(1 0 0 1 133 308.52)" class="st2 st3">Vin</text>
<rect x="225.7" y="302.7" class="st1" width="31" height="11"/>
<text transform="matrix(1 0 0 1 225.7053 311.2378)" class="st2 st3">P2</text>
<polyline class="st4" points="240.5,167.4 284.9,167 284.9,132.7 "/>
<polyline class="st4" points="292.5,134.5 316.7,134.5 316.7,111.1 379.5,111.5 "/>
<circle class="st4" cx="390.5" cy="111.5" r="11"/>
<rect x="387.2" y="108.1" class="st1" width="36.4" height="22"/>
<text transform="matrix(1 0 0 1 387.2002 116.6255)" class="st2 st3">V</text>
<line class="st4" x1="401.5" y1="111.5" x2="417.9" y2="111.1"/>
<line class="st4" x1="417.9" y1="102" x2="417.9" y2="119.1"/>
<line class="st4" x1="421.5" y1="104.5" x2="421.5" y2="116.6"/>
<line class="st4" x1="424.5" y1="107.1" x2="424.5" y2="113"/>
<g>
	<g>
		<polyline class="st5" points="296.8,147.6 316.3,147.6 316.3,175.7 366.9,175.5 		"/>
		<g>
			<polygon points="297.7,150.6 292.5,147.6 297.7,144.6 			"/>
		</g>
	</g>
</g>
<line class="st4" x1="366.9" y1="168.1" x2="366.9" y2="182"/>
<rect x="369.4" y="169.7" class="st1" width="22.5" height="10.8"/>
<text transform="matrix(1 0 0 1 369.3896 178.1831)" class="st2 st3">Vin</text>
<polyline class="st4" points="388.7,175.4 441,175.1 441.5,359 89.7,359 "/>
<polyline class="st4" points="128.5,306 90.9,306 88.5,418 128.5,418 "/>
<rect x="128.5" y="404.5" class="st4" width="102" height="102"/>
<rect x="132.9" y="412" class="st1" width="39" height="16.7"/>
<text transform="matrix(1 0 0 1 132.9263 420.4883)" class="st2 st3">Vout</text>
<rect x="206.4" y="412.2" class="st1" width="39" height="16.7"/>
<text transform="matrix(1 0 0 1 206.3631 420.6872)" class="st2 st3">Gnd</text>
<line class="st4" x1="230.5" y1="418" x2="248.1" y2="418"/>
<line class="st4" x1="248.1" y1="409.3" x2="248.1" y2="427.2"/>
<line class="st4" x1="251.9" y1="412" x2="251.9" y2="423"/>
<line class="st4" x1="256" y1="414.7" x2="256" y2="418.3"/>
<rect x="161.2" y="443.6" class="st1" width="66.7" height="45.5"/>
<text transform="matrix(1 0 0 1 161.1895 452.1514)"><tspan x="0" y="0" class="st2 st3">Battery </tspan><tspan x="0" y="14.4" class="st2 st3">Control</tspan></text>
<rect x="131.8" y="494.2" class="st1" width="15.2" height="9.5"/>
<text transform="matrix(1 0 0 1 131.7896 502.751)" class="st2 st3">B+</text>
<rect x="218.2" y="495.8" class="st1" width="15.2" height="9.5"/>
<text transform="matrix(1 0 0 1 218.1626 504.3325)" class="st2 st3">B-</text>
<line class="st4" x1="128.5" y1="169.7" x2="101.1" y2="170.1"/>
<line class="st4" x1="101.1" y1="156.2" x2="101.1" y2="182"/>
<line class="st4" x1="97.1" y1="161.6" x2="97.1" y2="178.2"/>
<line class="st4" x1="93.5" y1="164.5" x2="93.5" y2="173"/>
<polyline class="st4" points="132.9,506.5 131.8,547.8 161.6,547.8 "/>
<line class="st4" x1="161.6" y1="530.6" x2="161" y2="564"/>
<line class="st4" x1="170" y1="541.7" x2="170" y2="551.3"/>
<line class="st4" x1="179.5" y1="535.2" x2="179.5" y2="557.4"/>
<line class="st4" x1="191.5" y1="541.5" x2="191.5" y2="551.3"/>
<line class="st4" x1="199.9" y1="530.6" x2="199.9" y2="564"/>
<polyline class="st4" points="199.9,546.3 227.9,546.3 227.9,506.5 "/>
<line class="st4" x1="241.2" y1="308.2" x2="292.5" y2="308.2"/>
<line class="st6" x1="292.5" y1="295.2" x2="292.5" y2="320.4"/>
<line class="st6" x1="299.2" y1="295.2" x2="299.2" y2="320.4"/>
<line class="st4" x1="299.2" y1="308.5" x2="325.9" y2="308.5"/>
<rect x="334.5" y="297.2" class="st1" width="59.6" height="24.8"/>
<text transform="matrix(1 0 0 1 334.5264 305.6987)"><tspan x="0" y="0" class="st2 st3">Capacitive </tspan><tspan x="0" y="14.4" class="st2 st3">Sensor </tspan></text>
<line class="st4" x1="292.5" y1="130.1" x2="292.5" y2="136.9"/>
<line class="st4" x1="292.5" y1="143.3" x2="292.5" y2="150"/>
<line class="st4" x1="316.3" y1="158.5" x2="292.5" y2="158.5"/>
<line class="st4" x1="292.5" y1="156.2" x2="292.5" y2="161.6"/>
<rect x="28.9" y="34.8" class="st1" width="468.4" height="44.7"/>
<text transform="matrix(1 0 0 1 28.9473 48.0532)" class="st7 st8">Open Circuit Board Design, Capacitive Sensor Model </text>
<rect x="277.9" y="116.1" class="st1" width="48.5" height="14"/>
<text transform="matrix(1 0 0 1 277.8895 124.6588)"><tspan x="0" y="0" class="st2 st9">Mosfet</tspan><tspan x="32.6" y="0" class="st2 st3"> </tspan></text>
</svg>
