
<?xml version="1.0" encoding="utf-8"?>
<!-- Generator: Adobe Illustrator 25.4.1, SVG Export Plug-In . SVG Version: 6.00 Build 0)  -->
<svg version="1.1" id="Layer_1" xmlns="http://www.w3.org/2000/svg" xmlns:xlink="http://www.w3.org/1999/xlink" x="0px" y="0px"
	 viewBox="0 0 595.3 841.9" style="enable-background:new 0 0 595.3 841.9;" xml:space="preserve">
<style type="text/css">
	.st0{fill:#FFFFFF;stroke:#000000;stroke-miterlimit:10;}
	.st1{fill:none;}
	.st2{font-family:'MyriadPro-Regular';}
	.st3{font-size:12px;}
	.st4{fill:none;stroke:#000000;stroke-miterlimit:10;}
	.st5{fill:none;stroke:#000000;stroke-width:1.0006;stroke-miterlimit:10;}
	.st6{font-family:'SupremeLL-Regular';}
	.st7{font-size:17.0079px;}
	.st8{font-size:11.3386px;}
</style>
<rect x="188" y="351.6" class="st0" width="112" height="152"/>
<rect x="229.5" y="422.1" class="st1" width="53" height="40"/>
<text transform="matrix(1 0 0 1 229.4783 430.6025)" class="st2 st3">ESP32</text>
<rect x="192.5" y="357.1" class="st1" width="28" height="12"/>
<text transform="matrix(1 0 0 1 192.4783 365.6025)" class="st2 st3">Gnd</text>
<rect x="285.5" y="355.1" class="st1" width="31" height="11"/>
<text transform="matrix(1 0 0 1 285.4783 363.6025)" class="st2 st3">P1</text>
<rect x="192.5" y="490.1" class="st1" width="17" height="12"/>
<text transform="matrix(1 0 0 1 192.4783 498.6025)" class="st2 st3">Vin</text>
<rect x="285.2" y="492.8" class="st1" width="31" height="11"/>
<text transform="matrix(1 0 0 1 285.1836 501.3202)" class="st2 st3">P2</text>
<polyline class="st4" points="300,357.5 344.4,357.1 344.4,322.8 "/>
<polyline class="st4" points="352,324.6 376.2,324.6 376.2,301.2 439,301.6 "/>
<circle class="st4" cx="450" cy="301.6" r="11"/>
<rect x="446.7" y="298.2" class="st1" width="36.4" height="22"/>
<text transform="matrix(1 0 0 1 446.6785 306.7079)" class="st2 st3">V</text>
<line class="st4" x1="461" y1="301.6" x2="477.4" y2="301.2"/>
<line class="st4" x1="477.4" y1="292.1" x2="477.4" y2="309.2"/>
<line class="st4" x1="481" y1="294.6" x2="481" y2="306.7"/>
<line class="st4" x1="484" y1="297.2" x2="484" y2="303.1"/>
<g>
	<g>
		<polyline class="st5" points="356.3,337.7 375.8,337.7 375.8,365.7 426.3,365.6 		"/>
		<g>
			<polygon points="357.2,340.7 352,337.7 357.2,334.7 			"/>
		</g>
	</g>
</g>
<line class="st4" x1="426.3" y1="358.2" x2="426.3" y2="372.1"/>
<rect x="428.9" y="359.7" class="st1" width="22.5" height="10.8"/>
<text transform="matrix(1 0 0 1 428.868 368.2656)" class="st2 st3">Vin</text>
<polyline class="st4" points="448.2,365.5 500.5,365.1 501,549.1 149.2,549.1 "/>
<polyline class="st4" points="188,496.1 150.3,496.1 148,608.1 188,608.1 "/>
<rect x="188" y="594.6" class="st4" width="102" height="102"/>
<rect x="192.4" y="602.1" class="st1" width="39" height="16.7"/>
<text transform="matrix(1 0 0 1 192.4046 610.5707)" class="st2 st3">Vout</text>
<rect x="265.8" y="602.2" class="st1" width="39" height="16.7"/>
<text transform="matrix(1 0 0 1 265.8414 610.7696)" class="st2 st3">Gnd</text>
<line class="st4" x1="290" y1="608.1" x2="307.6" y2="608.1"/>
<line class="st4" x1="307.6" y1="599.4" x2="307.6" y2="617.2"/>
<line class="st4" x1="311.4" y1="602.1" x2="311.4" y2="613.1"/>
<line class="st4" x1="315.5" y1="604.8" x2="315.5" y2="608.3"/>
<rect x="220.7" y="633.7" class="st1" width="66.7" height="45.5"/>
<text transform="matrix(1 0 0 1 220.6677 642.2338)"><tspan x="0" y="0" class="st2 st3">Battery </tspan><tspan x="0" y="14.4" class="st2 st3">Control</tspan></text>
<rect x="191.3" y="684.3" class="st1" width="15.2" height="9.5"/>
<text transform="matrix(1 0 0 1 191.2678 692.8334)" class="st2 st3">B+</text>
<rect x="277.6" y="685.9" class="st1" width="15.2" height="9.5"/>
<text transform="matrix(1 0 0 1 277.6409 694.4149)" class="st2 st3">B-</text>
<line class="st4" x1="188" y1="359.7" x2="160.6" y2="360.2"/>
<line class="st4" x1="160.6" y1="346.3" x2="160.6" y2="372.1"/>
<line class="st4" x1="156.5" y1="351.7" x2="156.5" y2="368.3"/>
<line class="st4" x1="153" y1="354.6" x2="153" y2="363.1"/>
<polyline class="st4" points="192.4,696.6 191.3,737.9 221.1,737.9 "/>
<line class="st4" x1="221.1" y1="720.7" x2="220.5" y2="754"/>
<line class="st4" x1="229.5" y1="731.8" x2="229.5" y2="741.4"/>
<line class="st4" x1="239" y1="725.2" x2="239" y2="747.5"/>
<line class="st4" x1="251" y1="731.6" x2="251" y2="741.4"/>
<line class="st4" x1="259.4" y1="720.7" x2="259.4" y2="754"/>
<polyline class="st4" points="259.4,736.4 287.4,736.4 287.4,696.6 "/>
<line class="st4" x1="300.7" y1="498.3" x2="352" y2="498.3"/>
<line class="st4" x1="352" y1="320.2" x2="352" y2="327"/>
<line class="st4" x1="352" y1="333.4" x2="352" y2="340.1"/>
<line class="st4" x1="375.8" y1="348.6" x2="352" y2="348.6"/>
<line class="st4" x1="352" y1="346.3" x2="352" y2="351.7"/>
<rect x="145.3" y="243.6" class="st1" width="468.4" height="44.7"/>
<text transform="matrix(1 0 0 1 145.3104 256.8665)" class="st6 st7">Open Circuit Board Design, Load Cell Model </text>
<circle class="st4" cx="364" cy="498" r="12"/>
<rect x="357.9" y="492.7" class="st1" width="21.1" height="12.6"/>
<text transform="matrix(1 0 0 1 357.9053 501.2246)" class="st2 st3">LC</text>
<rect x="378.7" y="493.9" class="st1" width="72.8" height="32.3"/>
<text transform="matrix(1 0 0 1 378.7266 502.4141)" class="st2 st3">Load Cell </text>
<rect x="337.8" y="305.4" class="st1" width="48.5" height="14"/>
<text transform="matrix(1 0 0 1 337.8263 313.943)"><tspan x="0" y="0" class="st2 st8">Mosfet</tspan><tspan x="32.6" y="0" class="st2 st3"> </tspan></text>
</svg>
