<?xml version="1.0" encoding="utf-8"?>
<!-- Generator: Adobe Illustrator 25.4.1, SVG Export Plug-In . SVG Version: 6.00 Build 0)  -->
<svg version="1.1" id="Layer_1" xmlns="http://www.w3.org/2000/svg" xmlns:xlink="http://www.w3.org/1999/xlink" x="0px" y="0px"
	 viewBox="0 0 383 221" style="enable-background:new 0 0 383 221;" xml:space="preserve">
<style type="text/css">
	.st0{opacity:0.7;fill:#F36E26;enable-background:new    ;}
	.st1{opacity:0.4;fill:#808184;enable-background:new    ;}
	.st2{stroke:#808285;stroke-width:2.8346;stroke-miterlimit:10;}
	.st3{fill:#6D6E71;stroke:#808285;stroke-width:2.8346;stroke-miterlimit:10;}
	.st4{fill:#A7A9AC;stroke:#6D6E71;stroke-width:2.8346;stroke-miterlimit:10;}
	.st5{fill:#939598;stroke:#808285;stroke-width:2.8346;stroke-miterlimit:10;}
	.st6{stroke:#6D6E71;stroke-width:2.8346;stroke-miterlimit:10;}
	.st7{fill:none;}
	.st8{font-family:'ArialMT';}
	.st9{font-size:2.8475px;}
	.st10{fill:#F1F2F2;}
	.st11{font-family:'SupremeLL-Black';}
	.st12{font-size:17.0079px;}
</style>
<rect class="st0" width="383" height="221"/>
<rect x="13" y="6.8" class="st1" width="357" height="34"/>
<g>
	<g>
		<path class="st2" d="M16.1,199.4c0,0,82.5-29.6,85.6-96.1S74.3,53.7,74.3,53.7s-8.3,5-14.4,21.9S13.2,91,13.2,91L16.1,199.4z"/>
		<path class="st3" d="M13.2,91c0,0,2.9-1.5,2.9-3.5s1.5-23,1.5-23s28.2,14.7,56.7-10.9c0,0-8.8,8.4-11.6,15.2s-3.3,13.1-16.6,17.9
			C32.8,91.6,13.2,91,13.2,91z"/>
	</g>
	<g>
		<path class="st2" d="M236.6,88.1c-22.6-31.8-80.7-50.1-118.1,0c0,0-8.2,114.9,60,114.1C244.8,201.5,236.6,88.1,236.6,88.1z"/>
		<circle class="st4" cx="177.6" cy="118.2" r="9"/>
	</g>
	<g>
		<circle class="st4" cx="309" cy="110.3" r="9"/>
		<path class="st5" d="M369.6,85.8c-22.6-31.8-80.7-50.1-118.1,0c0,0-8.2,114.9,60,114.1C377.7,199.1,369.6,85.8,369.6,85.8z"/>
		<path class="st5" d="M251.4,85.8c-3.6,4,70,17.4,118.1,0"/>
		<path class="st2" d="M259.1,97.3c0,0,68.1,13,103.7-2.7c0.5-1.8,0.7,98.6-50.5,98.9C264.9,193.6,257.1,117.4,259.1,97.3z"/>
		<path class="st5" d="M322,102.2c-4.2,2.6-0.1,7-0.1,7c2,2.5,3.3,5.6,3.3,9.1c0,7.9-6.4,14.3-14.3,14.3s-14.3-6.4-14.3-14.3
			c0-3.4,1.2-6.4,3.1-8.9c0,0,3-5,0.2-7.5L322,102.2z"/>
		<circle class="st6" cx="310.9" cy="118.2" r="9"/>
	</g>
	<rect x="39.7" y="102.3" class="st7" width="11.5" height="14.8"/>
	<text transform="matrix(1 0 0 1 39.7139 104.2976)" class="st8 st9">F</text>
</g>
<rect x="20.3" y="15.6" class="st7" width="216.7" height="21.2"/>
<text transform="matrix(1 0 0 1 20.2739 28.8215)" class="st10 st11 st12">Final Design</text>
</svg>
